<svg width="140" height="87" viewBox="0 0 140 87" fill="none" xmlns="http://www.w3.org/2000/svg">
<path d="M36.4692 31.1959C56.2078 29.0046 77.3811 30.466 93.9327 41.3594C107.289 50.1241 116.429 64.2359 124.275 78.3773C125.531 81.1903 127.45 83.6565 129.869 85.564C131.114 86.4705 132.648 86.8894 134.181 86.7416C135.714 86.5938 137.139 85.8895 138.188 84.7619C139.129 83.0998 139.501 81.1752 139.245 79.282C138.606 64.2128 133.836 49.6091 125.456 37.0686C117.076 24.5281 105.409 14.5338 91.7318 8.17911C78.0546 1.82438 62.8939 -0.64602 47.9082 1.03817C32.9224 2.72237 18.6889 8.49628 6.76465 17.7283C-15.0648 34.5723 28.1372 32.1045 36.4692 31.1959Z" fill="#D597C3"/>
</svg>
