<svg width="139" height="87" viewBox="0 0 139 87" fill="none" xmlns="http://www.w3.org/2000/svg">
<path d="M35.8091 30.9928C55.5477 28.8015 76.721 30.2629 93.2726 41.1563C106.628 49.921 115.769 64.0329 123.615 78.1742C124.871 80.9873 126.79 83.4534 129.209 85.3609C130.454 86.2674 131.988 86.6863 133.521 86.5385C135.054 86.3907 136.479 85.6864 137.528 84.5587C138.469 82.8967 138.84 80.9721 138.585 79.0789C137.946 64.0097 133.175 49.406 124.795 36.8655C116.415 24.325 104.749 14.3307 91.0716 7.97599C77.3945 1.62126 62.2338 -0.849142 47.248 0.835052C32.2623 2.51925 18.0288 8.29313 6.1045 17.5251C-15.7249 34.3692 27.4771 31.9015 35.8091 30.9928Z" fill="#D597C3"/>
</svg>
