<svg width="140" height="87" viewBox="0 0 140 87" fill="none" xmlns="http://www.w3.org/2000/svg">
<path d="M36.6113 31.0018C56.3405 28.8348 77.4896 30.2868 94.0748 41.1653C107.421 49.9542 116.562 64.066 124.408 78.2074C125.663 81.0204 127.583 83.4866 130.002 85.3941C131.247 86.3006 132.781 86.7195 134.314 86.5717C135.847 86.4239 137.272 85.7196 138.321 84.5919C139.269 82.9291 139.632 80.9966 139.354 79.1027C138.724 64.0293 133.959 49.4195 125.58 36.8733C117.202 24.3271 105.534 14.3283 91.8531 7.97201C78.1725 1.61569 63.0074 -0.853014 48.0184 0.836195C33.0295 2.5254 18.7947 8.3074 6.87311 17.549C-14.932 34.4025 28.2793 31.9104 36.6113 31.0018Z" fill="#D597C3"/>
</svg>
