<svg width="292" height="317" viewBox="0 0 292 317" fill="none" xmlns="http://www.w3.org/2000/svg">
<path d="M99.1523 57.6939C123.222 24.5924 170.663 4.19988 205.939 25.0644C233.797 41.5414 244.52 78.6294 238.275 110.435C232.029 142.24 212.052 169.526 190.188 193.351C173.837 211.227 155.305 229.229 150.091 252.993C147.129 266.466 150.523 281.001 139.342 292.354C131.293 300.527 122.578 302.828 112.685 304.682C99.3001 307.349 83.6397 308.466 73.7548 298.969C63.3868 289.029 64.3484 272.393 66.1189 258.161C70.9608 218.956 78.9354 178.81 80.8108 139.35C82.1705 110.717 77.7873 81.4274 99.1523 57.6939Z" fill="#ED603C"/>
<path d="M193.897 115.232C197.304 102.569 198.549 73.0938 190.446 62.8102C182.343 52.5266 156.343 48.6073 144.127 53.4401C133.442 57.6094 122.929 73.3968 117.198 83.4115C111.563 93.642 108.006 104.909 106.734 116.558C105.228 128.447 113.397 146.829 114.986 158.75C118.362 183.927 106.856 211.973 105.262 229.33L109.65 231.271C116.372 221.774 139.752 182.479 158.911 164.852C173.118 151.476 188.787 134.228 193.897 115.232Z" fill="white"/>
<path d="M139.724 147.766C125.578 152.014 110.669 143.989 106.423 129.841C102.176 115.694 110.202 100.781 124.348 96.5322C138.493 92.2838 153.403 100.309 157.649 114.457C161.896 128.604 153.87 143.518 139.724 147.766Z" fill="black"/>
</svg>
