<svg width="592" height="836" viewBox="0 0 592 836" fill="none" xmlns="http://www.w3.org/2000/svg">
<path d="M191.206 110.89C222.547 78.6047 262.522 56.3284 301.899 34.5184C328.577 19.7156 356.123 4.69006 386.415 1.33225C434.598 -3.9828 482.351 22.2137 513.202 59.6529C544.054 97.0921 560.286 144.341 571.438 191.522C599.677 311.667 598.55 436.846 568.153 556.456C548.998 631.439 517.19 705.297 462.43 759.981C407.671 814.665 326.996 847.299 251.444 830.644C198.19 818.899 152.58 784.628 113.857 746.183C78.1637 711.118 47.3926 671.372 22.3861 628.032C10.8482 607.773 0.537173 585.784 0.424145 562.464C0.283412 540.082 9.69267 518.406 10.4939 495.969C11.2951 473.532 3.39871 451.361 2.65102 428.744C2.06398 401.575 6.89655 374.562 16.8663 349.283C26.6748 325.228 42.4065 304.044 62.5984 287.703C78.4632 274.524 99.8638 268.901 113.25 252.531C147.596 210.522 150.728 152.592 191.206 110.89Z" fill="#EBFF00"/>
</svg>
