<svg width="374" height="366" viewBox="0 0 374 366" fill="none" xmlns="http://www.w3.org/2000/svg">
<path d="M143.105 291.786C216.676 320.234 293.873 297.867 315.53 241.827C337.186 185.787 295.102 117.295 221.532 88.8466C147.961 60.3981 70.7639 82.7654 49.107 138.806C27.4501 194.846 69.5344 263.337 143.105 291.786Z" fill="#D597C3"/>
<path d="M243.771 55.9973C269.7 66.8889 292.407 82.5072 308.475 105.773C311.05 109.364 313.413 113.069 315.59 116.897C327.177 137.196 333.28 160.162 333.3 183.535C333.319 206.908 327.253 229.883 315.699 250.198C304.146 270.514 287.502 287.47 267.406 299.398C247.31 311.325 224.455 317.814 201.09 318.225C196.881 319.16 192.62 319.842 188.329 320.268C184.11 320.733 179.869 320.956 175.624 320.937C164.219 321.495 152.831 319.521 142.277 315.159C138.734 313.755 135.274 312.147 131.916 310.343C116.4 301.216 99.7954 294.083 82.4953 289.112C43.0241 277.952 50.7036 226.163 43.7976 192.764C43.3059 188.332 42.9467 184.062 42.8512 179.616C42.0432 143.236 55.7108 108.025 80.8498 81.7223C83.8806 78.5708 87.0689 75.5747 90.4024 72.7454C100.035 63.1293 113.42 53.2618 127.571 55.9986C134.276 56.7783 140.646 59.3573 146.006 63.4624C164.658 84.0153 189.518 62.1464 208.437 53.554C215.484 50.8287 223.131 50.0375 230.587 51.2623L243.771 55.9973ZM164.982 273.088C184.09 270.652 200.807 259.31 219.981 261.254C225.089 261.973 230.145 262.394 235.016 262.714C274.289 264.783 306.133 252.787 315.498 228.555C321.287 213.574 317.395 196.132 306.224 179.114C303.904 175.59 301.384 172.202 298.676 168.967C293.826 163.826 288.798 159.146 282.39 158.036C269.214 156.252 256.459 152.143 244.72 145.898C240.956 143.94 237.315 141.807 233.737 139.585C193.143 130.391 154.647 123.711 121.064 98.9751C117.508 98.4429 113.915 98.2016 110.32 98.2535C106.508 98.491 102.799 98.9175 99.1936 99.5329C92.5307 101.267 86.1913 104.065 80.4201 107.819C74.6702 111.58 69.8256 116.57 66.235 122.429C61.5802 129.954 58.9327 138.547 58.5452 147.388C58.1577 156.229 60.0432 165.021 64.0216 172.926C65.5246 176.132 67.1955 179.256 69.0275 182.286C83.9441 218.28 119.688 238.939 144.679 267.135C147.833 269.474 151.415 271.172 155.222 272.132C158.431 272.802 161.704 273.123 164.982 273.088V273.088Z" fill="black"/>
<path d="M146.389 147.837C145.864 148.853 145.644 149.998 145.756 151.136C146.023 151.898 146.438 152.599 146.977 153.2C147.515 153.801 148.167 154.29 148.895 154.639C161.631 162.825 174.999 169.983 188.873 176.042C194.62 160.738 199.77 145.174 204.308 129.457C204.952 128.137 205.098 126.629 204.718 125.21C204.338 123.792 203.458 122.558 202.241 121.736C196.15 115.836 188.975 109.489 180.427 109.728C161.171 110.237 152.296 132.984 146.389 147.837Z" fill="white"/>
<path d="M241.461 184.608C241.146 185.707 240.532 186.696 239.687 187.466C238.978 187.852 238.199 188.094 237.396 188.176C236.593 188.258 235.782 188.18 235.009 187.946C220.079 185.436 205.374 181.738 191.034 176.886C197.072 161.694 203.727 146.712 210.961 132.038C211.482 130.676 212.368 129.483 213.521 128.59C214.8 127.919 216.241 127.616 217.682 127.715C226.157 127.448 235.71 127.569 241.874 133.498C255.806 146.839 247.053 169.634 241.461 184.608Z" fill="white"/>
<path d="M249.504 165.639C249.858 161.398 250.654 157.207 251.881 153.133C252.522 151.099 253.723 149.286 255.348 147.905C256.973 146.524 258.955 145.63 261.066 145.325C263.932 145.362 266.679 146.474 268.764 148.442C271.551 151.023 273.781 154.146 275.318 157.62C276.854 161.094 277.665 164.845 277.7 168.643C277.708 176.241 276.487 183.789 274.085 190.996C273.86 192.184 273.309 193.285 272.493 194.177C271.737 194.769 270.838 195.153 269.886 195.29C265.384 195.849 260.814 195.245 256.612 193.534C253.414 192.493 247.281 191.684 244.836 189.343C241.961 186.529 243.97 183.426 245.233 180.23C247.165 175.53 248.597 170.639 249.504 165.639V165.639Z" fill="white"/>
<path d="M137.634 108.015C140.357 105.429 143.617 103.478 147.182 102.301C148.97 101.741 150.859 101.574 152.718 101.811C154.577 102.048 156.362 102.684 157.953 103.675C158.725 104.164 159.389 104.807 159.903 105.562C160.417 106.318 160.771 107.171 160.943 108.069C161.008 109.772 160.624 111.462 159.831 112.969C155.135 123.964 149.812 134.633 144.529 145.345C144.218 146.093 143.757 146.77 143.174 147.333C142.357 147.816 141.432 148.087 140.483 148.12C139.534 148.153 138.592 147.947 137.743 147.521C132.471 146.054 127.879 142.788 124.763 138.288C118.417 127.991 130.281 114.549 137.634 108.015Z" fill="white"/>
<path d="M115.068 197.529C116.072 194.988 117.81 192.803 120.061 191.254C123.624 189.255 127.997 190.36 131.831 191.703C135.704 193.07 139.506 194.633 143.221 196.386C145.415 197.21 147.342 198.621 148.789 200.465C150.835 203.545 150.066 207.629 149.074 211.209C145.689 223.46 140.831 235.255 134.606 246.335C134.069 247.538 133.19 248.557 132.078 249.265C129.518 250.619 126.569 248.502 124.438 246.506C117.879 240.369 109.32 235.078 107.778 226.36C106.235 217.642 111.316 205.289 115.068 197.529Z" fill="white"/>
<path d="M152.369 210.587C152.837 209.332 153.49 208.155 154.306 207.093C155.434 205.978 156.841 205.186 158.379 204.799C159.917 204.412 161.531 204.445 163.053 204.894C166.078 205.848 168.904 207.347 171.39 209.317C172.75 210.09 173.867 211.227 174.614 212.601C175.191 214.64 174.986 216.82 174.038 218.714L159.461 259.827C158.11 263.324 156.58 267.282 153.109 268.535C149.639 269.789 144.842 267.543 141.92 264.488C139.752 262.226 134.196 257.901 133.865 254.786C133.469 251.117 137.703 244.855 139.158 241.594L152.369 210.587Z" fill="white"/>
<path d="M198.951 231.69C199.417 230.534 199.684 229.306 199.74 228.06C199.579 226.527 199.02 225.062 198.117 223.812C197.215 222.562 196 221.57 194.595 220.936C191.723 219.626 188.649 218.815 185.504 218.536C184.007 218.182 182.444 218.222 180.967 218.652C179.236 219.632 177.958 221.253 177.408 223.165L161.756 260.345C160.508 263.575 159.091 267.241 160.829 270.398C162.568 273.554 167.326 272.435 171.495 272.261C175.618 271.457 179.589 270.006 183.259 267.962C184.591 267.289 185.763 266.337 186.695 265.171C187.627 264.005 188.298 262.652 188.661 261.204L198.951 231.69Z" fill="white"/>
<path d="M196.058 248.55L201.661 232.463C201.959 231.348 202.485 230.306 203.205 229.405C204.722 228.113 206.676 227.451 208.665 227.553C211.154 227.457 213.646 227.58 216.113 227.921C219.871 228.453 224.045 229.927 225.487 233.415C226.252 236.038 226.149 238.837 225.194 241.396C223.646 247.496 222.04 253.601 220.371 259.654C220.286 260.273 220.058 260.863 219.704 261.378C218.688 262.492 216.915 262.169 215.437 261.877C208.325 260.494 202.214 262.876 195.502 264.718C191.359 265.907 192.379 262.618 192.985 259.391C193.731 255.704 194.758 252.08 196.058 248.55V248.55Z" fill="white"/>
</svg>
