<svg width="1410" height="1622" viewBox="0 0 1410 1622" fill="none" xmlns="http://www.w3.org/2000/svg">
<path d="M819.242 0.710938L1401.15 244.97" stroke="black"/>
<path d="M26.8789 0.87793L26.8789 785.722" stroke="black"/>
<path d="M370.377 246.153L818.84 521.093" stroke="black"/>
<path d="M1098.66 519.941L1401.01 785.751" stroke="black"/>
<path d="M369.52 520.229L26.4762 247.115" stroke="black"/>
<path d="M1276.45 0.87793L1276.45 785.722" stroke="black"/>
<path d="M1098.43 0.87793L1098.43 785.722" stroke="black"/>
<path d="M1401.18 0.87793L1401.18 785.722" stroke="black"/>
<path d="M540.547 841.009L540.547 4.03061" stroke="black"/>
<path d="M819.484 0.87793L819.484 493.107" stroke="black"/>
<path d="M819.484 0.87793L819.484 785.722" stroke="black"/>
<path d="M370.461 0.87793L370.461 785.722" stroke="black"/>
<path d="M1401.18 245.856L819.487 245.856" stroke="black"/>
<path d="M26.8789 245.856L819.483 245.856" stroke="black"/>
<path d="M26.8789 520.326L1401.18 520.326" stroke="black"/>
<path d="M26.8828 785.915L26.8828 1570.76" stroke="black"/>
<path d="M819.707 785.828L370.38 1031.29" stroke="black"/>
<path d="M370.381 1031.19L818.844 1306.13" stroke="black"/>
<path d="M1097.94 1306.13L819.707 1570.5" stroke="black"/>
<path d="M1401.19 914.643L1277.6 1031.26" stroke="black"/>
<path d="M369.523 1305.26L26.4801 1032.15" stroke="black"/>
<path d="M1276.45 785.916L1276.45 1570.76" stroke="black"/>
<path d="M1098.43 785.916L1098.43 1570.76" stroke="black"/>
<path d="M1401.18 785.916L1401.18 1570.76" stroke="black"/>
<path d="M819.488 785.915L819.488 1278.14" stroke="black"/>
<path d="M819.488 785.915L819.488 1570.76" stroke="black"/>
<path d="M370.465 785.915L370.465 1570.76" stroke="black"/>
<path d="M1401.18 1030.9H819.487" stroke="black"/>
<path d="M1401.18 914.078L1276.45 914.078" stroke="black"/>
<path d="M26.8828 1030.9L819.487 1030.9" stroke="black"/>
<path d="M26.8828 1305.37L1401.18 1305.37" stroke="black"/>
<path d="M26.6523 785.75L1401.57 785.75" stroke="black"/>
<path d="M26.8789 785.186L26.8789 1570.76" stroke="black"/>
<path d="M819.711 785.832L370.384 1031.29" stroke="black"/>
<path d="M370.377 1031.19L818.84 1306.13" stroke="black"/>
<path d="M1097.95 1306.13L819.711 1570.5" stroke="black"/>
<path d="M1401.19 914.644L1277.6 1031.26" stroke="black"/>
<path d="M369.52 1305.27L26.4761 1032.15" stroke="black"/>
<path d="M1276.45 785.918L1276.45 1570.76" stroke="black"/>
<path d="M1098.43 785.918L1098.43 1570.76" stroke="black"/>
<path d="M1401.18 785.918L1401.18 1570.76" stroke="black"/>
<path d="M540.855 1571.33L540.855 841.042" stroke="black"/>
<path d="M819.484 785.918L819.484 1278.15" stroke="black"/>
<path d="M819.484 785.918L819.484 1570.76" stroke="black"/>
<path d="M370.461 785.918L370.461 1570.76" stroke="black"/>
<path d="M1401.18 1030.9H819.487" stroke="black"/>
<path d="M1401.18 914.077L1276.45 914.077" stroke="black"/>
<path d="M26.8789 1030.9L819.483 1030.9" stroke="black"/>
<path d="M26.8789 1305.37L1401.18 1305.37" stroke="black"/>
<path d="M26.6484 785.751L1401.57 785.751" stroke="black"/>
</svg>
