<svg width="126" height="192" viewBox="0 0 126 192" fill="none" xmlns="http://www.w3.org/2000/svg">
<path d="M5.33807 102.701C18.3163 134.541 43.4393 159.578 67.9229 183.67C69.0087 184.76 70.7534 186.383 72.7948 188.177C74.4336 189.614 76.3692 190.672 78.4636 191.274C80.5579 191.877 82.7594 192.009 84.9108 191.663C87.0623 191.317 89.1108 190.5 90.9102 189.271C92.7096 188.041 94.2156 186.43 95.3206 184.552C100.249 176.131 106.315 166.14 109.513 161.907C120.22 147.85 125.897 143.124 125.631 130.238C125.454 123.24 123.689 116.374 120.471 110.157L82.4909 35.1307C77.6673 25.3842 70.6563 16.8848 62.0057 10.2961C5.37275 -32.0607 -8.63586 68.3835 5.33807 102.701Z" fill="#ED603C"/>
</svg>
