<svg width="382" height="215" viewBox="0 0 382 215" fill="none" xmlns="http://www.w3.org/2000/svg">
<path d="M249.264 0.973633C254.772 21.0712 259.112 41.4704 262.261 62.0689C262.744 65.257 263.17 68.6963 261.7 71.5752C258.934 76.966 251.565 77.3717 245.531 77.3717C174.679 76.1447 105.233 97.2069 47.0217 137.578C21.1249 155.644 -4.42367 183.429 1.32041 214.44C128.374 198.364 255.001 179.539 381.204 157.963L342.929 0.973796" fill="black"/>
<path d="M125.725 52.4295C125.324 49.4677 126.011 46.4614 127.659 43.9666C128.879 42.4599 130.416 41.2395 132.16 40.3914C133.905 39.5434 135.814 39.0885 137.754 39.0588C144.678 38.8656 149.591 43.2903 152.646 47.3092C157.984 54.323 178.891 89.4692 160.189 89.5851C139.688 89.7204 126.421 61.9937 125.725 52.4295Z" stroke="#1D1D1B" stroke-width="2.09" stroke-miterlimit="10"/>
<path d="M201.445 38.7871C200.954 35.8419 199.416 33.1727 197.112 31.2709C195.491 30.1859 193.65 29.4725 191.721 29.1819C189.792 28.8913 187.822 29.0306 185.953 29.5899C179.281 31.5221 175.896 37.1061 174.175 41.8592C171.158 50.129 161.565 89.8932 179.474 84.4831C199.104 78.5513 203.611 48.1581 201.445 38.7871Z" stroke="#1D1D1B" stroke-width="2.09" stroke-miterlimit="10"/>
</svg>
