<svg width="731" height="819" viewBox="0 0 731 819" fill="none" xmlns="http://www.w3.org/2000/svg">
<path d="M17.8314 312.376C3.36401 272.617 -5.64192 228.99 4.01505 187.748C14.6847 142.242 47.1278 105.229 83.1877 77.1806C206.486 -18.6399 386.532 -26.0135 516.775 59.3973C533.067 69.6778 548.501 81.2578 562.925 94.0242C582.552 112.166 598.803 133.644 610.921 157.459C622.82 180.917 629.62 227.616 602.421 284.617C640.311 364.895 683.257 442.69 731 517.536L591.824 576.85C591.824 576.85 592.222 725.623 550.99 782.118C525.672 816.708 477.604 825.745 437.385 814.323C397.166 802.901 363.42 774.78 332.316 745.864C265.404 683.586 220.194 611.368 161.782 542.367C103.37 473.367 49.0447 399.125 17.8314 312.376Z" fill="#2FAD74"/>
</svg>
