<svg width="654" height="733" viewBox="0 0 654 733" fill="none" xmlns="http://www.w3.org/2000/svg">
<path d="M16.0492 279.65C3.11654 244.077 -4.93406 205.044 3.69851 168.145C13.2364 127.43 42.2379 94.3148 74.4727 69.2197C184.692 -16.5112 345.639 -23.1083 462.066 53.3089C476.63 62.5069 490.426 72.8675 503.321 84.2897C520.866 100.521 535.392 119.737 546.225 141.045C556.862 162.033 562.941 203.815 538.627 254.813C572.498 326.638 610.888 396.242 653.566 463.206L529.154 516.275C529.154 516.275 529.51 649.382 492.651 699.928C470.019 730.877 427.05 738.961 391.097 728.742C355.145 718.523 324.979 693.363 297.174 667.492C237.36 611.772 196.945 547.158 144.73 485.423C92.5138 423.688 43.9515 357.264 16.0492 279.65Z" fill="#2FAD74"/>
</svg>
