<svg width="282" height="202" viewBox="0 0 282 202" fill="none" xmlns="http://www.w3.org/2000/svg">
<path d="M161.801 156.853C228.011 132.092 272.331 86.9982 260.793 56.1322C249.255 25.2662 186.229 20.3164 120.019 45.0767C53.81 69.837 9.4899 114.931 21.0276 145.797C32.5653 176.663 95.5918 181.613 161.801 156.853Z" fill="black"/>
<path d="M256.103 50.3824C212.841 48.4906 169.69 56.1089 129.689 72.7005C89.6878 89.292 53.8101 114.454 24.582 146.413C67.3641 153.807 111.38 148.198 150.942 130.311C191.784 111.822 228.791 85.8782 256.103 50.3824Z" fill="white"/>
<path d="M179.341 50.2372C183.935 70.5361 181.583 91.1245 167.475 103.065C153.367 115.006 128.84 119.492 113.212 113.594C108.589 112.016 104.314 109.559 100.623 106.358C96.2219 101.745 92.462 96.5606 89.4453 90.9435C90.3513 85.5315 92.3846 80.3704 95.4134 75.795C98.4422 71.2196 102.399 67.3322 107.026 64.3849C123.403 53.498 143.304 49.2426 162.7 52.4806C164.023 52.8665 165.429 52.8665 166.752 52.4806C167.743 51.9713 168.667 51.3392 169.501 50.5991C172.648 48.1748 175.795 49.9478 179.341 50.2372Z" fill="black"/>
</svg>
