<svg width="729" height="567" viewBox="0 0 729 567" fill="none" xmlns="http://www.w3.org/2000/svg">
<path d="M396.465 139.371C464.106 116.321 537.858 97.8351 607.59 82.2271C564.84 106.803 519.099 131.583 476.349 156.159C472.243 156.034 471.246 162.708 474.347 165.375C477.482 168.028 482.079 167.696 486.148 167.269C545.042 160.495 601.701 159.877 660.595 153.103C605.856 181.054 549.557 207.088 490.466 223.877C551.103 230.288 610.99 243.752 671.627 250.162C663.316 249.308 647.053 258.995 638.957 261.816C626.908 265.988 614.829 270.091 602.696 273.974C578.444 281.775 553.946 288.913 529.193 294.905C479.991 306.839 430.002 311.535 379.907 317.857C406.724 323.452 434.402 324.865 461.628 322.056C472.879 320.905 484.054 319.018 495.369 318.853C535.514 318.182 572.869 338.742 605.797 361.707C594.313 362.229 583.631 366.375 572.218 367.433C558.312 368.722 544.43 370.162 530.533 371.284C502.656 373.525 474.717 375.063 446.764 375.634C390.908 376.795 334.893 374.135 279.637 365.836C279.124 365.775 278.596 365.68 278.118 365.603C179.126 350.536 81.8801 316.595 0.683594 257.985C42.1505 256.904 77.2053 245.796 118.672 244.714C164.307 243.527 211.054 242.101 253.51 225.352C304.182 205.406 348.669 165.487 396.465 139.371Z" fill="black"/>
<path d="M411.865 62.7052C401.872 77.6969 394.577 94.518 390.423 112.044C389.511 115.924 388.674 119.975 386.252 123.173C384.441 125.539 381.919 127.2 379.432 128.846C354.24 145.322 329.506 163.788 303.277 178.526C316.331 139.187 346.543 105.783 379.846 81.9392C389.599 74.9946 400.592 66.9854 411.865 62.7052Z" fill="#1D1D1B"/>
<path d="M160.56 301.607C181.81 313.709 203.388 325.913 227.082 331.97C259.201 340.17 293.014 336.572 325.911 332.357C310.716 310.294 287.513 294.621 262.549 284.98C237.584 275.339 210.764 271.326 184.094 269.153C172.541 268.205 134.904 263.168 126.643 274.207C119.332 283.983 153.245 297.443 160.56 301.607Z" fill="#EBFF00"/>
<path d="M302.58 264.137C319.395 277.879 341.333 284.09 363.002 285.474C384.671 286.858 406.336 283.745 427.8 280.638C412.531 269.995 397.086 259.225 379.773 252.467C370.024 248.671 359.855 246.15 349.667 243.678C332.907 239.598 316.167 235.47 299.407 231.39C268.061 223.665 292.892 256.18 302.58 264.137Z" fill="#EBFF00"/>
<path d="M397.141 234.597C429.312 236.654 461.067 245.417 489.767 260.125C471.446 263.287 454.577 269.143 436.379 263.336C420.67 258.314 406.555 248.184 397.141 234.597Z" fill="#EBFF00"/>
<path d="M432.89 356.722C411.559 363.783 389.351 362.836 368.362 354.795C362.539 352.578 356.551 349.42 353.691 343.852C381.503 342.207 407.431 345.472 432.89 356.722Z" fill="#EBFF00"/>
<path d="M406.452 218.483C430.068 218.657 453.708 211.689 473.448 198.712C451.451 189 426.237 188.505 402.74 193.466C379.291 198.447 357.295 208.553 336.146 219.587C360.154 215.337 382.118 218.335 406.452 218.483Z" fill="#EBFF00"/>
<path d="M229.392 258.753C240.949 260.833 252.818 260.266 264.57 259.709C260.982 247.972 252.938 237.64 242.378 231.318C241.732 230.95 240.411 230.145 239.639 229.953C239.639 229.953 238.216 230.408 236.724 230.893C229.27 233.233 219.995 235.391 213.406 236.829C208.671 237.87 197.334 239.665 197.334 239.665C200.493 249.197 220.999 257.245 229.392 258.753Z" fill="#EBFF00"/>
<path d="M268.673 287.514C265.227 289.941 259.667 294.5 256.255 296.911C249.987 301.332 243.513 305.841 236.082 307.766C222.859 311.19 209.096 305.892 196.461 300.672C194.756 291.036 192.345 279.397 190.674 269.747C196.752 270.029 217.772 272.626 223.889 274.026C244.098 278.678 260.121 282.834 268.673 287.514Z" fill="white"/>
<path d="M369.876 249.059C369.7 248.933 370.128 248.706 370.217 248.911C370.306 249.116 370.126 249.356 369.951 249.513C365.112 253.678 360.306 257.829 355.482 262.028C354.572 262.828 353.56 263.672 352.37 263.823C351.531 263.944 350.661 263.713 349.84 263.502C343.771 261.838 337.716 260.208 331.646 258.544C330.957 258.357 330.219 258.15 329.68 257.654C328.984 256.983 328.79 255.974 328.659 255.017C327.815 249.426 327.056 244.122 326.213 238.53C326.343 238.271 326.65 238.137 326.929 238.219C329.977 238.802 332.72 239.801 335.792 240.252C337.262 240.466 338.757 240.831 340.238 241.161C350.42 243.433 360.088 245.36 369.876 249.059Z" fill="white"/>
<path d="M525.892 355.39C520.774 356.109 514.681 357.009 509.564 357.728C503.573 358.584 497.784 358.5 491.736 358.57C476.742 358.75 461.307 351.745 449.223 342.841C449.501 342.923 453.282 342.297 453.526 342.393C464.202 340.195 479.526 338.251 497.809 340.05C517.733 341.988 533.479 347.561 543.881 352.209C540.045 352.333 529.736 354.817 525.892 355.39Z" fill="#EBFF00"/>
<path d="M432.957 127.458C432.957 127.458 432.345 135.302 432.006 134.801C428.633 140.478 424.883 143.887 420.511 148.944C413.953 156.529 404.498 162.291 394.745 164.656C384.993 167.021 370.116 163.827 362.533 159.699C362.533 159.699 393.537 137.095 410.248 134.145C413.945 133.514 419.424 131.665 419.424 131.665L432.957 127.458Z" fill="#EBFF00"/>
<path d="M409.63 134.477C409.761 134.217 409.761 134.217 409.761 134.217C409.923 134.31 409.894 134.524 409.885 134.69C409.129 139.395 408.353 144.149 407.596 148.854C407.464 149.763 407.277 150.735 406.675 151.402C406.233 151.877 405.668 152.163 405.054 152.429C400.781 154.444 396.543 156.444 392.27 158.459C391.759 158.68 391.262 158.936 390.715 158.89C390.002 158.834 389.395 158.368 388.856 157.872C385.696 155.068 382.491 152.162 379.346 149.392C379.346 149.392 379.657 149.176 379.798 149.034C381.291 147.617 383.276 146.027 385.257 144.803C386.222 144.222 388.67 142.674 389.634 142.094C396.057 138.215 401.57 135.419 409.63 134.477Z" fill="white"/>
</svg>
