<svg width="143" height="103" viewBox="0 0 143 103" fill="none" xmlns="http://www.w3.org/2000/svg">
<path d="M36.803 94.6994C28.8688 92.3176 21.4701 88.4307 15.0128 83.2519C6.6903 75.6779 1.43996 65.3234 0.255379 54.148C-0.929201 42.9727 2.03415 31.7519 8.58464 22.6092C16.6535 12.867 27.6577 5.98116 39.9625 2.97453C54.4282 -0.884894 69.643 -0.990354 84.161 2.66813C98.6791 6.32662 112.018 13.6275 122.911 23.8771C133.027 33.044 139.745 45.349 141.977 58.7992C142.965 65.504 142.139 72.3504 139.585 78.6302C137.031 84.91 132.842 90.3951 127.45 94.5183C106.132 109.009 59.3921 102.09 36.803 94.6994Z" fill="#ED603C"/>
<path d="M81.8696 92.1282C75.6453 91.2566 69.6009 89.3977 63.9652 86.6217C58.2885 83.8164 53.8518 79.0167 51.5084 73.1455C51.0311 72.1463 50.8079 71.0452 50.8586 69.9395C50.9093 68.8338 51.2323 67.7576 51.799 66.8059C52.9124 65.6601 54.387 64.9311 55.9754 64.7411C62.6892 63.8833 69.5109 64.8339 75.7319 67.4942C83.1381 70.1832 90.2555 73.6056 96.9775 77.7101C102.716 81.3327 110.596 86.5855 103.333 91.5485C97.4496 95.6059 88.334 93.2512 81.8696 92.1282Z" fill="black"/>
</svg>
