<svg width="286" height="352" viewBox="0 0 286 352" fill="none" xmlns="http://www.w3.org/2000/svg">
<path d="M160.267 2.96076C168.196 6.35674 176.318 9.28253 184.591 11.7229C195.146 14.7359 204.7 20.5288 212.254 28.497C235.114 52.3626 256.543 73.6712 271.056 104.799C278.278 120.345 284.683 136.779 284.989 153.894C285.296 171.009 278.891 189.147 264.889 198.966C252.352 207.762 236.034 208.819 222.339 215.603C183.91 234.696 180.878 287.2 162.924 325.999C158.12 336.431 150.932 347.069 139.826 350.103C128.72 353.137 117.682 347.955 107.972 342.296C70.937 320.66 40.1465 289.776 18.6123 252.663C9.20951 236.401 1.5783 218.57 1.03322 199.818C-0.261366 155.837 36.6001 106.674 56.7002 68.6935C81.0588 22.326 109.165 -7.06279 160.267 2.96076Z" stroke="black" stroke-width="2" stroke-miterlimit="10"/>
</svg>
