<svg width="322" height="322" viewBox="0 0 322 322" fill="none" xmlns="http://www.w3.org/2000/svg">
<path d="M132.624 248.475C101.87 210.882 73.465 149.649 80.8011 99.5498C93.0522 100.996 106.749 109.093 118.53 113.466C132.407 118.672 146.863 123.515 161.318 127.744C174.509 131.359 187.844 134.54 200.854 138.878C216.647 144.191 233.379 140.287 249.497 142.89C264.97 145.083 279.591 151.317 291.888 160.963C295.422 163.866 298.611 167.165 301.392 170.795C303.77 174.067 305.943 177.484 307.897 181.025C313.498 190.712 319.1 199.604 320.69 210.882C322.136 221.437 319.967 231.594 319.967 242.113C318.591 257.716 313.417 272.745 304.897 285.887C297.344 297.671 286.141 311.588 272.373 315.925C261.314 319.54 249.858 322.902 238.33 321.781C231.844 320.885 225.479 319.26 219.357 316.937C211.028 313.578 203.101 309.298 195.722 304.177C187.683 299.262 179.948 293.866 172.557 288.02C157.812 276.371 144.417 263.107 132.624 248.475V248.475Z" fill="#ED603C"/>
<path d="M121.354 114.513C124.968 75.8724 133.244 56.2446 135.809 17.5674C125.474 33.5082 114.126 46.9187 103.791 62.751C99.4177 45.1114 87.8172 0 87.8172 0L83.9503 24.0377C81.8904 37.7012 80.3365 50.2442 78.132 63.7993C64.6161 47.0271 32.0189 18.7241 32.0189 18.7241C32.0189 18.7241 39.2467 41.099 53.7022 77.0652C35.681 69.884 17.7803 62.245 0 54.1481C16.407 72.2215 35.2714 90.295 52.2928 108.043C52.2928 108.043 6.68567 116.574 1.69853 117.224C1.69853 117.224 56.521 134.503 80.9869 139.455C81.8933 139.624 82.8117 139.721 83.7335 139.744C90.4551 139.935 97.1549 138.894 103.501 136.671C107.822 135.334 111.837 133.16 115.319 130.273C116.474 128.866 117.548 127.393 118.535 125.864C119.829 123.645 120.654 121.185 120.956 118.634L121.354 114.513Z" fill="black"/>
</svg>
