<svg width="313" height="522" viewBox="0 0 313 522" fill="none" xmlns="http://www.w3.org/2000/svg">
<path d="M95.6434 322.985C114.892 262.797 151.498 202.324 184.699 148.565C185.632 147.053 172.861 143.819 166.653 140.073C130.152 117.977 108.182 104.099 73.1755 79.6473C57.1181 68.4468 40.1203 55.3936 33.8742 37.1287C33.0213 34.5974 35.4079 32.113 37.9021 32.9824C62.6705 41.5619 121.936 67.2589 156.21 83.3099C158.586 84.4291 164.854 87.3144 165.479 86.2991C165.956 85.547 163.255 83.0533 157.206 77.6738C145.205 66.9761 141.911 64.4547 137.163 59.2725C128.387 49.7451 127.699 45.4357 128.285 42.4176C128.406 41.7765 129.564 38.7781 132.194 38.202C141.401 36.1855 152.313 41.1459 160.189 47.1179C186.258 66.9387 209.648 87.7834 235.696 107.596C239.253 110.315 242.92 113.125 245.031 117.114C249.606 125.691 245.614 136.256 241.578 145.21C234.686 160.446 214.637 190.194 210.567 199.306C173.051 283.314 159.062 311.009 175.494 412.764C178.502 431.425 184.086 447.868 175.263 466.105C154.778 508.499 101.087 526.337 85.2648 473.528C71.1861 426.386 80.9149 368.979 95.6434 322.985Z" fill="#2FAD74"/>
<path d="M151.807 61.8106C152.877 61.6001 154.042 61.3274 154.767 60.4947C156.196 58.8214 155.016 56.2598 153.674 54.572C149.273 48.9725 143.332 44.6357 136.692 42.1496C135.065 41.5347 133.34 41.0545 131.611 41.2862C129.882 41.5179 128.168 42.6656 127.698 44.357C127.189 46.2797 128.117 48.5493 129.232 50.2003C131.884 54.1053 134.771 57.7059 138.272 60.8987C138.85 61.4218 139.475 61.822 140.135 62.1218C143.582 63.6873 147.995 62.5161 151.807 61.8106Z" fill="#ED603C"/>
<path d="M140.508 100.754C127.307 94.4839 105.849 83.8126 89.8579 75.2822C68.551 63.9549 47.8148 51.5644 27.994 37.7737" stroke="white" stroke-width="0.5" stroke-miterlimit="10"/>
<path d="M116.305 99.2266C107.99 94.3365 103.248 92.0024 88.2737 83.4631C67.2952 71.5221 46.4649 58.9975 28.2357 43.1031" stroke="white" stroke-width="0.5" stroke-miterlimit="10"/>
<path d="M48.5578 48.0813C48.618 47.8581 48.5856 47.6245 48.5451 47.4124C47.8542 44.0029 45.1431 41.4038 42.2644 39.5037C39.6359 37.772 36.7976 36.4037 33.9724 35.0649C33.7904 34.9715 33.6003 34.8997 33.3858 34.8924C32.999 34.8937 32.6674 35.2602 32.5503 35.634C32.4543 36.0159 32.5353 36.4401 32.6327 36.8212C33.3936 39.7898 35.3849 42.3136 37.7257 44.2316C39.5906 45.7484 41.6993 46.9393 43.8406 48.044C44.7162 48.4735 48.1315 49.5926 48.5578 48.0813Z" fill="#ED603C"/>
<path d="M49.9902 56.4209C50.0341 56.2407 50.0147 56.0367 49.966 55.8461C49.3741 52.9413 47.0545 50.7115 44.5998 49.0947C42.3612 47.6088 39.9502 46.4512 37.51 45.3072C37.3491 45.2218 37.1801 45.158 37.016 45.1451C36.6796 45.1409 36.3936 45.4508 36.3138 45.7896C36.2341 46.1284 36.2973 46.472 36.3687 46.7942C37.0274 49.3306 38.7279 51.474 40.7162 53.1112C42.3049 54.4006 44.1131 55.4285 45.9327 56.3625C46.732 56.7385 49.6322 57.6875 49.9902 56.4209Z" fill="#ED603C"/>
<path d="M52.545 63.2875C52.5694 63.2229 52.5385 63.1129 52.4996 63.0244C51.9769 61.597 50.3558 60.074 48.6663 58.7957C47.1296 57.6244 45.4725 56.5798 43.8236 55.5136C43.7261 55.4521 43.6075 55.3826 43.5019 55.3427C43.2907 55.2629 43.1152 55.3441 43.0664 55.4732C43.0176 55.6023 43.0744 55.7714 43.1523 55.9484C43.6815 57.2308 44.9095 58.5805 46.3032 59.7469C47.4208 60.686 48.6425 61.5414 49.9015 62.3618C50.4019 62.6985 52.3579 63.7824 52.545 63.2875Z" fill="#ED603C"/>
</svg>
