<svg width="612" height="692" viewBox="0 0 612 692" fill="none" xmlns="http://www.w3.org/2000/svg">
<path d="M119.384 551.648C110.406 464.962 131.517 379.015 179.273 307.83C226.664 237.677 320.147 174.262 383.848 163.758C383.848 163.758 430.935 155.78 452.357 158.32C500.499 164.022 532.017 181.681 568.117 207.511C574.163 211.638 579.702 216.456 584.611 221.856C586.171 223.641 584.268 224.756 582.479 226.188C573.734 233.156 557.089 223.568 544.591 220.705C531.672 217.734 518.494 213.661 505.265 212.886C499.036 212.517 492.296 211.605 486.069 211.718C482.116 211.793 463.168 212.252 463.168 212.252C466.406 214.803 469.778 217.184 473.267 219.384C484.595 224.438 493.468 228.641 506.003 230.141C510.947 230.73 531.633 237.359 529.733 247.905C529.525 248.397 529.241 248.852 528.889 249.254C527.851 250.338 526.2 249.584 524.788 249.687C519.244 249.896 503.683 246.381 501.492 246.143C491.419 245.033 481.313 244.458 471.264 243.526C461.215 242.594 456.297 240.138 446.485 237.803C437.643 235.689 421.668 231.903 414.408 226.218L401.676 216.207C395.672 215.862 389.667 215.886 383.696 216.278C378.879 216.857 374.16 217.949 369.623 219.534C366.812 220.443 359.66 223.269 359.66 223.269C300.984 247.407 248.302 296.593 221.849 353.34C211.563 375.407 201.541 397.196 195.924 420.965C192.951 433.613 190.554 446.394 188.73 459.307C186.3 476.504 190.8 519.853 186.152 534.835C181.504 549.816 175.524 556.168 170.256 560.502C159.923 568.989 143.989 575.826 129.762 567.719C126.872 566.011 124.418 563.657 122.611 560.858C120.803 558.059 119.696 554.899 119.384 551.648Z" fill="#D597C3"/>
<path d="M586.336 219.812C576.926 216.608 559.164 207.142 547.579 202.062C542.168 199.685 534.195 198.674 528.638 196.698C516.957 192.559 492.996 188.511 480.832 186.748" stroke="white" stroke-width="0.5" stroke-miterlimit="10"/>
<path d="M556.355 194.849L526.683 182.514C523.696 181.269 520.701 180.031 517.623 179.069C509.491 176.555 484.932 170.682 484.932 170.682" stroke="white" stroke-width="0.5" stroke-miterlimit="10"/>
<path d="M525.665 241.372C525.665 241.372 523.478 240.149 522.347 239.553C520.915 238.799 519.38 238.266 517.798 237.975C516.08 237.614 514.32 237.601 512.625 237.936C511.781 238.114 511.004 238.497 510.362 239.05C509.721 239.603 509.235 240.31 508.95 241.106C508.761 241.98 508.815 242.898 509.105 243.765C509.396 244.631 509.912 245.416 510.601 246.038C511.997 247.272 513.66 248.17 515.452 248.658C518.04 249.49 520.709 250.016 523.4 250.225C525.216 250.37 531.26 251.089 532.166 249.036C533.179 246.73 528.59 243.026 525.665 241.372Z" fill="#2FAD74"/>
<path d="M575.244 221.698C574.537 221.19 573.977 220.51 573.621 219.728C573.451 219.328 573.417 218.889 573.524 218.479C573.631 218.068 573.874 217.709 574.215 217.456C574.891 217.156 575.668 217.124 576.389 217.368C582.793 218.817 590.34 220.803 588.326 224.2C585.801 228.351 577.619 223.66 575.244 221.698Z" fill="#2FAD74"/>
<path d="M577.913 216.313C577.17 215.958 576.492 215.478 575.912 214.895C575.325 214.272 574.995 213.461 574.991 212.63C574.981 212.533 574.992 212.437 575.024 212.347C575.056 212.257 575.107 212.176 575.176 212.109C575.245 212.063 575.324 212.032 575.407 212.017C575.491 212.002 575.577 212.004 575.661 212.023L578.312 213.775C578.312 213.775 582.503 217.194 582.195 217.516C581.666 218.239 578.634 216.698 577.913 216.313Z" fill="#2FAD74"/>
</svg>
