<svg width="263" height="355" viewBox="0 0 263 355" fill="none" xmlns="http://www.w3.org/2000/svg">
<path d="M160.588 26.7662C149.882 21.2304 137.996 18.3674 125.944 18.4216C96.9655 19.608 73.4713 45.8851 67.7081 74.3017C63.1618 96.8254 67.5861 120.111 71.9873 142.661L90.1353 235.502C96.5731 268.525 103.141 301.933 117.202 332.489C121.334 341.511 131.685 351.626 139.355 345.353C141.494 343.311 142.985 340.684 143.641 337.8C149.485 318.709 145.889 298.116 147.667 278.207C150.288 249.328 164.234 223.713 181.822 201.236C197.996 180.614 230.682 161.965 234.251 136.915C240.371 93.5649 196.115 43.6577 160.588 26.7662Z" fill="black"/>
<path d="M113.073 146.607C112.748 126.721 114.643 106.437 125.261 90.5876C133.375 78.4024 150.102 69.1294 166.181 76.2677C173.628 79.9695 179.815 85.7898 183.966 92.9972C195.179 111.065 196.193 132.92 186.541 148.725C179.065 160.849 166.327 169.041 156.428 179.42C140.885 195.738 136.049 214.967 132.664 236.796C113.225 228.749 113.385 162.19 113.073 146.607Z" fill="white"/>
</svg>
