<svg width="340" height="207" viewBox="0 0 340 207" fill="none" xmlns="http://www.w3.org/2000/svg">
<path d="M338.157 5.6929H340L331.869 151.234C308.668 117.961 288.311 82.7918 271.017 46.0989C268.343 89.6853 265.645 133.272 262.923 176.858C237.671 142.356 215.07 105.991 195.313 68.0728C190.76 111.226 186.135 154.812 189.965 198.182L133.087 92.0345C124.723 126.279 119.879 161.289 118.633 196.519C100.074 169.2 84.7349 139.827 72.9216 108.985C64.6104 141.295 57.8893 173.967 52.758 207C29.9526 170.639 12.2035 131.342 0 90.1913C42.3871 63.013 86.3641 47.6168 134.497 32.3652C134.497 32.3652 273.836 -16.2087 339.928 5.65677" fill="black"/>
</svg>
